<?xml version="1.0" encoding="UTF-8"?>
<svg id="Layer_1" data-name="Layer 1" xmlns="http://www.w3.org/2000/svg" viewBox="0 0 192 192">
  <rect width="192" height="192" style="stroke-width: 0px;"/>
  <path d="M59.59,119.97c-4.69,4.61-11.11,7.45-18.2,7.45-14.34,0-25.96-11.62-25.96-25.96,0-4.28,3.48-7.76,7.76-7.76s7.76,3.48,7.76,7.76c0,5.77,4.68,10.45,10.45,10.45s10.45-4.68,10.45-10.45v-29.12c0-4.28,3.48-7.76,7.76-7.76s7.76,3.48,7.76,7.76v29.12c0,5.77,4.68,10.45,10.45,10.45s10.45-4.68,10.45-10.45v-29.12c0-4.28,3.48-7.76,7.76-7.76s7.76,3.48,7.76,7.76v29.12c0,5.77,4.68,10.45,10.45,10.45s10.45-4.68,10.45-10.45v-29.12c0-4.28,3.48-7.76,7.76-7.76s7.76,3.48,7.76,7.76v29.12c0,5.77,4.68,10.45,10.45,10.45s10.45-4.68,10.45-10.45v-29.12c0-4.28,3.48-7.76,7.76-7.76s7.76,3.48,7.76,7.76v29.12c0,14.34-11.62,25.96-25.96,25.96-7.09,0-13.52-2.84-18.2-7.45-4.69,4.61-11.11,7.45-18.2,7.45s-13.52-2.84-18.2-7.45c-4.69,4.61-11.11,7.45-18.2,7.45s-13.52-2.84-18.2-7.45Z" style="fill: #fff; fill-rule: evenodd; stroke-width: 0px;"/>
</svg>