<svg xmlns="http://www.w3.org/2000/svg"><defs><symbol viewBox="0 0 24 24" id="cloud"><path d="M5,16.371c-1.518,0 -2.75,-1.232 -2.75,-2.75c0,-1.517 1.232,-2.75 2.75,-2.75l0.258,0c0.129,-1.953 1.756,-3.5 3.742,-3.5c0.096,0 0.19,0.004 0.284,0.011c0.238,-1.7 1.7,-3.011 3.466,-3.011c1.932,0 3.5,1.569 3.5,3.5c0,0.025 -0,0.051 -0.001,0.076c0.243,-0.05 0.494,-0.076 0.751,-0.076c2.029,0 3.683,1.615 3.748,3.628c0.612,0.505 1.002,1.268 1.002,2.122c0,1.518 -1.232,2.75 -2.75,2.75l-14,0Z" style="" fill="rgb(139, 158, 176)"/><path d="M21.305,17.121c-0.491,0.753 -1.34,1.25 -2.305,1.25l-14,0c-1.054,0 -1.971,-0.594 -2.432,-1.466c0.101,-0.016 0.204,-0.026 0.309,-0.031c0.128,-0.156 0.273,-0.297 0.433,-0.421c0.28,-1.558 1.524,-2.782 3.091,-3.034c0.305,-0.293 0.658,-0.535 1.048,-0.712c0.429,-1.214 1.509,-2.122 2.819,-2.303c0.634,-0.638 1.512,-1.033 2.482,-1.033c1.932,0 3.5,1.569 3.5,3.5c0,0.025 -0,0.051 -0.001,0.076c0.243,-0.05 0.494,-0.076 0.751,-0.076c2.029,0 3.683,1.615 3.748,3.628c0.216,0.178 0.404,0.388 0.557,0.622Z" style="" fill="rgb(232, 238, 244)"/></symbol><symbol viewBox="0 0 24 24" id="fog"><path d="M20.241,19c0,-0.552 -0.448,-1 -1,-1l-14.482,-0c-0.552,-0 -1,0.448 -1,1c-0,0.552 0.448,1 1,1l14.482,-0c0.552,-0 1,-0.448 1,-1Z" style="" fill="rgb(76, 98, 121)"/><path d="M19.241,15c0,0.552 -0.448,1 -1,1l-8.482,0c-0.552,0 -1,-0.448 -1,-1l-1,0c-0.552,0 -1,-0.448 -1,-1c-0,-0.552 0.448,-1 1,-1l11.482,0c0.552,0 1,0.448 1,1c0,0.552 -0.448,1 -1,1Z" style="" fill="rgb(131, 145, 159)"/><path d="M14.241,10c0,0.552 -0.448,1 -1,1l-7.482,0c-0.552,0 -1,-0.448 -1,-1c-0.552,0 -1,-0.448 -1,-1c-0,-0.552 0.448,-1 1,-1l11.482,0c0.552,0 1,0.448 1,1c0,0.552 -0.448,1 -1,1l-2,0Z" style="" fill="rgb(202, 211, 219)"/><path d="M18.241,5c0,0.552 -0.448,1 -1,1l-7.482,0c-0.552,0 -1,-0.448 -1,-1l-2,0c-0.552,0 -1,-0.448 -1,-1c-0,-0.552 0.448,-1 1,-1l12.482,0c0.552,0 1,0.448 1,1c0,0.552 -0.448,1 -1,1l-1,0Z" style="" fill="rgb(230, 236, 242)"/></symbol><symbol viewBox="0 0 24 24" id="humidity"><path d="M22,4.371c0,-0.552 -0.448,-1 -1,-1l-17,0c-0.552,0 -1,0.448 -1,1c0,0.552 0.448,1 1,1l17,0c0.552,0 1,-0.448 1,-1Z" style="" fill="rgb(189, 209, 229)"/><path d="M22,9c0,-0.552 -0.448,-1 -1,-1l-17,0c-0.552,0 -1,0.448 -1,1c0,0.552 0.448,1 1,1l17,0c0.552,0 1,-0.448 1,-1Z" style="" fill="rgb(135, 177, 219)"/><path d="M7.253,13.5c-0,-0 1.939,2.043 1.939,3.403c-0,1.359 -1.257,1.847 -1.939,1.847c-0.682,-0 -1.939,-0.488 -1.939,-1.847c-0,-1.36 1.939,-3.403 1.939,-3.403Zm4.747,-1.5c0,-0 1.939,2.043 1.939,3.403c-0,1.359 -1.257,1.847 -1.939,1.847c-0.682,-0 -1.939,-0.488 -1.939,-1.847c0,-1.36 1.939,-3.403 1.939,-3.403Zm5.253,1.5c-0,-0 2.77,2.919 2.77,4.861c-0,1.941 -1.796,2.639 -2.77,2.639c-0.974,-0 -2.77,-0.698 -2.77,-2.639c-0,-1.942 2.77,-4.861 2.77,-4.861Z" style="" fill="rgb(81, 168, 255)"/></symbol><symbol viewBox="0 0 47 19" id="logo"><path d="M13.333,16.209c-1.308,1.287 -3.103,2.081 -5.083,2.081c-4.004,-0 -7.25,-3.246 -7.25,-7.25c-0,-1.195 0.971,-2.166 2.166,-2.166c1.196,-0 2.167,0.971 2.167,2.166c-0,1.611 1.306,2.917 2.917,2.917c1.611,0 2.917,-1.306 2.917,-2.917l-0,-8.133c-0,-1.196 0.971,-2.167 2.166,-2.167c1.196,0 2.166,0.971 2.166,2.167l0,8.133c0,1.611 1.306,2.917 2.918,2.917c1.611,0 2.917,-1.306 2.917,-2.917l-0,-8.133c-0,-1.196 0.97,-2.167 2.166,-2.167c1.196,0 2.166,0.971 2.166,2.167l0,8.133c0,1.611 1.306,2.917 2.917,2.917c1.612,0 2.918,-1.306 2.918,-2.917l-0,-8.133c-0,-1.196 0.97,-2.167 2.166,-2.167c1.195,0 2.166,0.971 2.166,2.167l0,8.133c0,1.611 1.306,2.917 2.917,2.917c1.611,0 2.917,-1.306 2.917,-2.917l0,-8.133c0,-1.196 0.971,-2.167 2.167,-2.167c1.195,0 2.166,0.971 2.166,2.167l0,8.133c0,4.004 -3.246,7.25 -7.25,7.25c-1.98,-0 -3.775,-0.794 -5.083,-2.081c-1.309,1.287 -3.103,2.081 -5.084,2.081c-1.98,-0 -3.775,-0.794 -5.083,-2.081c-1.308,1.287 -3.103,2.081 -5.083,2.081c-1.981,-0 -3.775,-0.794 -5.084,-2.081Z" fill="currentColor"/></symbol><symbol viewBox="0 0 24 24" id="location"><path d="M9.025,17.541c-0.201,-0.228 -0.233,-0.483 -0.064,-0.753c0.594,-0.949 3.453,-1.719 6.381,-1.719c2.928,-0 4.823,0.77 4.229,1.719c-0.169,0.27 -0.521,0.525 -1.006,0.753l-6.76,3.179l-2.78,-3.179Zm5.744,-1.556c-1.302,-0 -2.572,0.342 -2.836,0.763c-0.264,0.422 0.578,0.764 1.879,0.764c1.302,0 2.572,-0.342 2.836,-0.764c0.264,-0.421 -0.578,-0.763 -1.879,-0.763Z"/><path d="M7.035,10.908c-0.343,-0.702 -0.535,-1.49 -0.535,-2.323c0,-2.928 2.377,-5.305 5.305,-5.305c2.928,0 5.305,2.377 5.305,5.305c0,0.833 -0.192,1.621 -0.535,2.323l-4.77,9.812l-4.77,-9.812Zm4.77,-4.802c-1.301,-0 -2.358,1.056 -2.358,2.357c0,1.302 1.057,2.358 2.358,2.358c1.301,0 2.358,-1.056 2.358,-2.358c-0,-1.301 -1.057,-2.357 -2.358,-2.357Z" style="" fill="rgb(191, 83, 98)"/></symbol><symbol viewBox="0 0 24 24" id="moon"><path d="M8,5.072c-3.824,2.207 -5.136,7.104 -2.928,10.928c2.207,3.824 7.104,5.136 10.928,2.928c3.824,-2.207 5.136,-7.104 2.928,-10.928c-2.207,-3.824 -7.104,-5.136 -10.928,-2.928Z" style="" fill="rgb(38, 32, 0)"/><path d="M13.04,5.235c-0.646,0.111 -1.284,0.335 -1.885,0.682c-2.72,1.57 -3.654,5.054 -2.083,7.774c1.57,2.72 5.053,3.653 7.773,2.083c0.601,-0.347 1.115,-0.788 1.533,-1.292c-0.544,1.403 -1.552,2.636 -2.955,3.446c-3.272,1.889 -7.462,0.767 -9.351,-2.505c-1.889,-3.272 -0.767,-7.462 2.505,-9.351c1.404,-0.81 2.976,-1.067 4.463,-0.837Z" style="" fill="rgb(255, 215, 0)"/></symbol><symbol viewBox="0 0 24 24" id="precipitation"><path d="M12.469,19c-0,0.552 0.448,1 1,1c0.552,0 1,-0.448 1,-1c-0,-0.259 0.21,-0.469 0.469,-0.469c0.259,0 0.469,0.21 0.469,0.469c-0,1.07 -0.868,1.938 -1.938,1.938c-1.07,-0 -1.938,-0.868 -1.938,-1.938l0,-16.203l0.938,-0l-0,16.203Z" style="" fill="rgb(93, 93, 93)"/><path d="M12,10c-1.536,-0.879 -3.071,-0.982 -4.607,0c-1.464,-0.737 -2.929,-0.752 -4.393,0c0,0 2.617,-6 9,-6c6.383,0 9,6 9,6c-1.464,-0.752 -2.929,-0.737 -4.393,0c-1.536,-0.982 -3.071,-0.879 -4.607,0Z" style="" fill="rgb(255, 110, 0)"/><path d="M5.662,13.75c-0,-0 1.662,1.752 1.662,2.916c-0,1.165 -1.078,1.584 -1.662,1.584c-0.585,-0 -1.662,-0.419 -1.662,-1.584c0,-1.164 1.662,-2.916 1.662,-2.916Zm13,-3c-0,-0 1.662,1.752 1.662,2.916c-0,1.165 -1.078,1.584 -1.662,1.584c-0.585,-0 -1.662,-0.419 -1.662,-1.584c-0,-1.164 1.662,-2.916 1.662,-2.916Z" style="" fill="rgb(81, 168, 255)"/></symbol><symbol viewBox="0 0 24 24" id="search"><path d="M9.24,13.476c-1.515,-2.127 -1.318,-5.102 0.589,-7.009c2.126,-2.126 5.578,-2.126 7.704,0c2.126,2.126 2.126,5.578 -0,7.704c-1.907,1.907 -4.882,2.104 -7.009,0.589l-4.367,4.367l-1.284,-1.284l4.367,-4.367Zm7.164,-5.88c-1.503,-1.503 -3.943,-1.503 -5.446,-0c-1.503,1.503 -1.503,3.943 -0,5.446c1.503,1.503 3.943,1.503 5.446,0c1.503,-1.503 1.503,-3.943 0,-5.446Z" fill="currentColor"/></symbol><symbol viewBox="0 0 24 24" id="thunder"><path d="M15.119,7.85l2.881,0l-2.161,4.538l2.161,-0l-3.601,5.762l0.72,-4.322l-1.441,0l1.441,-5.978Zm-6.28,-2.85l4,0l-3,6.3l3,0l-5,8l1,-6l-2,0l2,-8.3Z" style="" fill="rgb(96, 81, 0)"/><path d="M14.699,6.85l2.881,0l-2.16,4.538l2.16,-0l-3.601,5.762l0.72,-4.322l-1.44,0l1.44,-5.978Zm-6.279,-2.85l4,0l-3,6.3l3,0l-5,8l1,-6l-2,0l2,-8.3Z" style="" fill="rgb(255, 215, 0)"/></symbol><symbol viewBox="0 0 24 24" id="sun"><path d="M6.054,9.537c0.282,-2.445 -0.418,-3.901 -0.418,-3.901c0,0 1.456,0.7 3.901,0.418c1.928,-1.53 2.463,-3.054 2.463,-3.054c0,0 0.535,1.524 2.463,3.054c2.445,0.282 3.901,-0.418 3.901,-0.418c-0,0 -0.7,1.456 -0.418,3.901c1.53,1.928 3.054,2.463 3.054,2.463c0,-0 -1.524,0.535 -3.054,2.463c-0.282,2.445 0.418,3.901 0.418,3.901c-0,-0 -1.456,-0.7 -3.901,-0.418c-1.928,1.53 -2.463,3.054 -2.463,3.054c0,0 -0.535,-1.524 -2.463,-3.054c-2.445,-0.282 -3.901,0.418 -3.901,0.418c0,-0 0.7,-1.456 0.418,-3.901c-1.53,-1.928 -3.054,-2.463 -3.054,-2.463c0,-0 1.524,-0.535 3.054,-2.463Zm5.946,-3.837c-3.477,0 -6.3,2.823 -6.3,6.3c0,3.477 2.823,6.3 6.3,6.3c3.477,0 6.3,-2.823 6.3,-6.3c0,-3.477 -2.823,-6.3 -6.3,-6.3Z" style="" fill="rgb(255, 139, 0)"/><circle cx="12" cy="12" r="6.3" style="" fill="rgb(255, 215, 0)"/><circle cx="12" cy="12" r="3.3" style="" fill="rgb(255, 215, 0)"/></symbol><symbol viewBox="0 0 24 24" id="temperature"><path d="M14,14.536c1.195,0.692 2,1.985 2,3.464c0,2.208 -1.792,4 -4,4c-2.208,0 -4,-1.792 -4,-4c0,-1.479 0.805,-2.772 2,-3.464l0,-10.536c0,-1.104 0.896,-2 2,-2c1.104,0 2,0.896 2,2l-0,10.536Z" style="" fill="rgb(143, 206, 221)"/><path d="M14,8l-0,6.536c1.195,0.692 2,1.985 2,3.464c0,2.208 -1.792,4 -4,4c-2.208,0 -4,-1.792 -4,-4c0,-1.479 0.805,-2.772 2,-3.464l-0,-6.536l4,0Z" style="" fill="rgb(234, 8, 0)"/></symbol><symbol viewBox="0 0 24 24" id="wind"><path d="M8.002,9.412c-0,0 3.886,-1.157 4.367,2.505c0.356,2.711 -5.37,3.452 -4.025,6.977c-2.055,-0.662 -7.532,-4.784 -5.258,-8.784c1.997,-3.513 4.057,-1.474 4.916,-0.698Zm5.641,-2.671c0,-0 -0.106,1.537 -2.3,0.808c-1.625,-0.54 -0.916,-2.573 -3.204,-2.989c0.787,-0.505 4.233,-1.282 6.077,0.421c1.619,1.495 0.042,1.669 -0.573,1.76Zm3.027,2.69c0,0 0.629,0.963 -0.772,1.488c-1.037,0.389 -1.589,-1.133 -2.897,-0.381c0.163,-0.645 1.512,-2.616 3.172,-2.407c1.457,0.184 0.76,0.977 0.497,1.3Zm0.494,3.582c0,-0 -0.455,-0.842 0.565,-1.163c0.754,-0.237 1.152,1.057 2.105,0.542c-0.12,0.518 -1.105,2.031 -2.311,1.729c-1.059,-0.266 -0.55,-0.864 -0.359,-1.108Zm2.951,4.904c-0,-0 -0.637,0.714 -1.286,-0.135c-0.48,-0.629 0.602,-1.444 -0.207,-2.164c0.528,-0.064 2.286,0.347 2.412,1.584c0.111,1.086 -0.624,0.811 -0.919,0.715Zm-6.274,-3.464c0,-0 0.56,-1.007 1.677,-0.012c0.828,0.736 -0.262,1.935 1.014,2.741c-0.647,0.158 -3.021,-0.115 -3.61,-1.681c-0.517,-1.375 0.511,-1.129 0.919,-1.048Z" style="" fill="rgb(40, 166, 103)"/></symbol></defs></svg>