<?xml version="1.0" encoding="UTF-8"?>
<svg xmlns="http://www.w3.org/2000/svg" xmlns:xlink="http://www.w3.org/1999/xlink">
  <defs>
    <symbol id="cloud" viewBox="0 0 24 24">
      <g>
        <rect width="24" height="24" style="fill: none; stroke-width: 0px;"/>
        <path d="M5,16.37c-1.52,0-2.75-1.23-2.75-2.75s1.23-2.75,2.75-2.75h.26c.13-1.95,1.76-3.5,3.74-3.5.1,0,.19,0,.28.01.24-1.7,1.7-3.01,3.47-3.01,1.93,0,3.5,1.57,3.5,3.5,0,.03,0,.05,0,.08.24-.05.49-.08.75-.08,2.03,0,3.68,1.61,3.75,3.63.61.5,1,1.27,1,2.12,0,1.52-1.23,2.75-2.75,2.75H5Z" style="fill: #8b9eb0; fill-rule: evenodd; stroke-width: 0px;"/>
        <path d="M21.3,17.12c-.49.75-1.34,1.25-2.3,1.25H5c-1.05,0-1.97-.59-2.43-1.47.1-.02.2-.03.31-.03.13-.16.27-.3.43-.42.28-1.56,1.52-2.78,3.09-3.03.3-.29.66-.53,1.05-.71.43-1.21,1.51-2.12,2.82-2.3.63-.64,1.51-1.03,2.48-1.03,1.93,0,3.5,1.57,3.5,3.5,0,.03,0,.05,0,.08.24-.05.49-.08.75-.08,2.03,0,3.68,1.61,3.75,3.63.22.18.4.39.56.62Z" style="fill: #e8eef4; fill-rule: evenodd; stroke-width: 0px;"/>
      </g>
    </symbol>
    <symbol id="compass" viewBox="0 0 24 24">
      <g>
        <rect width="24" height="24" style="fill: none; stroke-width: 0px;"/>
        <polygon points="12 3.28 6.87 20.72 12 16.7 12 3.28" style="fill: #bf5362; fill-rule: evenodd; stroke-width: 0px;"/>
        <polyline points="17.13 20.72 12 16.7 12 3.28 17.13 20.72" style="fill: #ccc; fill-rule: evenodd; stroke-width: 0px;"/>
      </g>
    </symbol>
    <symbol id="favorite" viewBox="0 0 24 24">
      <g>
        <rect width="24" height="24" style="fill: none; stroke-width: 0px;"/>
        <path d="M11.45,4.38c.09-.23.31-.38.55-.38s.47.15.55.38l1.7,4.51,4.82.23c.25.01.46.17.54.41.08.23,0,.49-.19.65l-3.76,3.01,1.27,4.65c.07.24-.02.49-.22.64-.2.14-.47.15-.67.02l-4.03-2.65-4.03,2.65c-.21.14-.47.13-.67-.02-.2-.14-.29-.4-.22-.64l1.27-4.65-3.76-3.01c-.19-.15-.27-.41-.19-.65.08-.23.29-.4.54-.41l4.82-.23,1.7-4.51Z" style="fill: #ffc000; fill-rule: evenodd; stroke: #000; stroke-miterlimit: 10;"/>
      </g>
    </symbol>
    <symbol id="fog" viewBox="0 0 24 24">
      <g>
        <path d="M20.24,19c0-.55-.45-1-1-1H4.76c-.55,0-1,.45-1,1s.45,1,1,1h14.48c.55,0,1-.45,1-1Z" style="fill: #4c6279; fill-rule: evenodd; stroke-width: 0px;"/>
        <path d="M19.24,15c0,.55-.45,1-1,1h-8.48c-.55,0-1-.45-1-1h-1c-.55,0-1-.45-1-1s.45-1,1-1h11.48c.55,0,1,.45,1,1s-.45,1-1,1Z" style="fill: #83919f; fill-rule: evenodd; stroke-width: 0px;"/>
        <path d="M14.24,10c0,.55-.45,1-1,1h-7.48c-.55,0-1-.45-1-1-.55,0-1-.45-1-1s.45-1,1-1h11.48c.55,0,1,.45,1,1s-.45,1-1,1h-2Z" style="fill: #cad3db; fill-rule: evenodd; stroke-width: 0px;"/>
        <path d="M18.24,5c0,.55-.45,1-1,1h-7.48c-.55,0-1-.45-1-1h-2c-.55,0-1-.45-1-1s.45-1,1-1h12.48c.55,0,1,.45,1,1s-.45,1-1,1h-1Z" style="fill: #e6ecf2; fill-rule: evenodd; stroke-width: 0px;"/>
        <rect width="24" height="24" style="fill: none; stroke-width: 0px;"/>
      </g>
    </symbol>
    <symbol id="humidity" viewBox="0 0 24 24">
      <g>
        <path d="M21.5,4.37c0-.55-.45-1-1-1H3.5c-.55,0-1,.45-1,1s.45,1,1,1h17c.55,0,1-.45,1-1Z" style="fill: #bdd1e5; fill-rule: evenodd; stroke-width: 0px;"/>
        <path d="M21.5,9c0-.55-.45-1-1-1H3.5c-.55,0-1,.45-1,1s.45,1,1,1h17c.55,0,1-.45,1-1Z" style="fill: #87b1db; fill-rule: evenodd; stroke-width: 0px;"/>
        <path d="M16.75,13.5s2.77,2.92,2.77,4.86-1.8,2.64-2.77,2.64-2.77-.7-2.77-2.64,2.77-4.86,2.77-4.86ZM11.5,12s1.94,2.04,1.94,3.4-1.26,1.85-1.94,1.85-1.94-.49-1.94-1.85,1.94-3.4,1.94-3.4ZM6.75,13.5s1.94,2.04,1.94,3.4-1.26,1.85-1.94,1.85-1.94-.49-1.94-1.85,1.94-3.4,1.94-3.4Z" style="fill: #51a8ff; fill-rule: evenodd; stroke-width: 0px;"/>
        <rect width="24" height="24" style="fill: none; stroke-width: 0px;"/>
      </g>
    </symbol>
    <symbol id="location" viewBox="0 0 24 24">
      <g>
        <rect width="24" height="24" style="fill: none; stroke-width: 0px;"/>
        <path d="M14.77,15.98c-1.3,0-2.57.34-2.84.76-.26.42.58.76,1.88.76s2.57-.34,2.84-.76c.26-.42-.58-.76-1.88-.76ZM9.02,17.54c-.2-.23-.23-.48-.06-.75.59-.95,3.45-1.72,6.38-1.72s4.82.77,4.23,1.72c-.17.27-.52.53-1.01.75l-6.76,3.18-2.78-3.18Z" style="fill-rule: evenodd; stroke-width: 0px;"/>
        <path d="M11.8,6.11c-1.3,0-2.36,1.06-2.36,2.36s1.06,2.36,2.36,2.36,2.36-1.06,2.36-2.36-1.06-2.36-2.36-2.36ZM7.04,10.91c-.34-.7-.54-1.49-.54-2.32,0-2.93,2.38-5.31,5.3-5.31s5.3,2.38,5.3,5.31c0,.83-.19,1.62-.53,2.32l-4.77,9.81-4.77-9.81Z" style="fill: #bf5362; fill-rule: evenodd; stroke-width: 0px;"/>
      </g>
    </symbol>
    <symbol id="logo" viewBox="0 0 47.02 18.85">
      <g>
        <rect width="47.02" height="18.85" style="fill: none; stroke-width: 0px;"/>
        <path d="M13.35,16.12c-1.31,1.29-3.1,2.08-5.08,2.08-4,0-7.25-3.25-7.25-7.25,0-1.2.97-2.17,2.17-2.17s2.17.97,2.17,2.17c0,1.61,1.31,2.92,2.92,2.92s2.92-1.31,2.92-2.92V2.82c0-1.2.97-2.17,2.17-2.17s2.17.97,2.17,2.17v8.13c0,1.61,1.31,2.92,2.92,2.92s2.92-1.31,2.92-2.92V2.82c0-1.2.97-2.17,2.17-2.17s2.17.97,2.17,2.17v8.13c0,1.61,1.31,2.92,2.92,2.92s2.92-1.31,2.92-2.92V2.82c0-1.2.97-2.17,2.17-2.17s2.17.97,2.17,2.17v8.13c0,1.61,1.31,2.92,2.92,2.92s2.92-1.31,2.92-2.92V2.82c0-1.2.97-2.17,2.17-2.17s2.17.97,2.17,2.17v8.13c0,4-3.25,7.25-7.25,7.25-1.98,0-3.78-.79-5.08-2.08-1.31,1.29-3.1,2.08-5.08,2.08s-3.78-.79-5.08-2.08c-1.31,1.29-3.1,2.08-5.08,2.08s-3.78-.79-5.08-2.08Z" style="fill-rule: evenodd; stroke-width: 0px;"/>
      </g>
    </symbol>
    <symbol id="moon" viewBox="0 0 24 24">
      <g>
        <rect x="0" width="24" height="24" style="fill: none; stroke-width: 0px;"/>
        <path d="M8,5.07c-3.82,2.21-5.14,7.1-2.93,10.93,2.21,3.82,7.1,5.14,10.93,2.93,3.82-2.21,5.14-7.1,2.93-10.93-2.21-3.82-7.1-5.14-10.93-2.93Z" style="fill: #262000; fill-rule: evenodd; stroke-width: 0px;"/>
        <path d="M13.04,5.24c-.65.11-1.28.33-1.88.68-2.72,1.57-3.65,5.05-2.08,7.77,1.57,2.72,5.05,3.65,7.77,2.08.6-.35,1.12-.79,1.53-1.29-.54,1.4-1.55,2.64-2.96,3.45-3.27,1.89-7.46.77-9.35-2.51-1.89-3.27-.77-7.46,2.5-9.35,1.4-.81,2.98-1.07,4.46-.84Z" style="fill: gold; fill-rule: evenodd; stroke-width: 0px;"/>
      </g>
    </symbol>
    <symbol id="precipitation" viewBox="0 0 24 24">
      <g>
        <path d="M12.47,19c0,.55.45,1,1,1s1-.45,1-1c0-.26.21-.47.47-.47s.47.21.47.47c0,1.07-.87,1.94-1.94,1.94s-1.94-.87-1.94-1.94V2.8h.94v16.2Z" style="fill: #5d5d5d; fill-rule: evenodd; stroke-width: 0px;"/>
        <path d="M12,10c-1.54-.88-3.07-.98-4.61,0-1.46-.74-2.93-.75-4.39,0,0,0,2.62-6,9-6s9,6,9,6c-1.46-.75-2.93-.74-4.39,0-1.54-.98-3.07-.88-4.61,0Z" style="fill: #ff6e00; fill-rule: evenodd; stroke-width: 0px;"/>
        <path d="M18.66,10.75s1.66,1.75,1.66,2.92-1.08,1.58-1.66,1.58-1.66-.42-1.66-1.58,1.66-2.92,1.66-2.92ZM5.66,13.75s1.66,1.75,1.66,2.92-1.08,1.58-1.66,1.58-1.66-.42-1.66-1.58,1.66-2.92,1.66-2.92Z" style="fill: #51a8ff; fill-rule: evenodd; stroke-width: 0px;"/>
        <rect width="24" height="24" style="fill: none; stroke-width: 0px;"/>
      </g>
    </symbol>
    <symbol id="search" viewBox="0 0 24 24">
      <g>
        <rect width="24" height="24" style="fill: none; stroke-width: 0px;"/>
        <path d="M16.4,7.6c-1.5-1.5-3.94-1.5-5.45,0-1.5,1.5-1.5,3.94,0,5.45,1.5,1.5,3.94,1.5,5.45,0,1.5-1.5,1.5-3.94,0-5.45ZM9.24,13.48c-1.51-2.13-1.32-5.1.59-7.01,2.13-2.13,5.58-2.13,7.7,0,2.13,2.13,2.13,5.58,0,7.7-1.91,1.91-4.88,2.1-7.01.59l-4.37,4.37-1.28-1.28,4.37-4.37Z" style="fill-rule: evenodd; stroke-width: 0px;"/>
      </g>
    </symbol>
    <symbol id="sun" viewBox="0 0 24 24">
      <g>
        <rect width="24" height="24" style="fill: none; stroke-width: 0px;"/>
        <path d="M12,5.7c-3.48,0-6.3,2.82-6.3,6.3s2.82,6.3,6.3,6.3,6.3-2.82,6.3-6.3-2.82-6.3-6.3-6.3ZM6.05,9.54c.28-2.45-.42-3.9-.42-3.9,0,0,1.46.7,3.9.42,1.93-1.53,2.46-3.05,2.46-3.05,0,0,.54,1.52,2.46,3.05,2.45.28,3.9-.42,3.9-.42,0,0-.7,1.46-.42,3.9,1.53,1.93,3.05,2.46,3.05,2.46,0,0-1.52.53-3.05,2.46-.28,2.45.42,3.9.42,3.9,0,0-1.46-.7-3.9-.42-1.93,1.53-2.46,3.05-2.46,3.05,0,0-.54-1.52-2.46-3.05-2.45-.28-3.9.42-3.9.42,0,0,.7-1.46.42-3.9-1.53-1.93-3.05-2.46-3.05-2.46,0,0,1.52-.53,3.05-2.46Z" style="fill: #ff8b00; fill-rule: evenodd; stroke-width: 0px;"/>
        <circle cx="12" cy="12" r="6.3" style="fill: gold; stroke-width: 0px;"/>
        <circle cx="12" cy="12" r="3.3" style="fill: gold; stroke-width: 0px;"/>
      </g>
    </symbol>
    <symbol id="temperature" viewBox="0 0 24 24">
      <g>
        <path d="M14,14.54c1.2.69,2,1.98,2,3.46,0,2.21-1.79,4-4,4s-4-1.79-4-4c0-1.48.8-2.77,2-3.46V4c0-1.1.9-2,2-2s2,.9,2,2v10.54Z" style="fill: #8fcedd; fill-rule: evenodd; stroke-width: 0px;"/>
        <path d="M14,8v6.54c1.2.69,2,1.98,2,3.46,0,2.21-1.79,4-4,4s-4-1.79-4-4c0-1.48.8-2.77,2-3.46v-6.54h4Z" style="fill: #bf5362; fill-rule: evenodd; stroke-width: 0px;"/>
        <rect width="24" height="24" style="fill: none; stroke-width: 0px;"/>
      </g>
    </symbol>
    <symbol id="thunder" viewBox="0 0 24 24">
      <g>
        <rect width="24" height="24" style="fill: none; stroke-width: 0px;"/>
        <path d="M8.84,5h4l-3,6.3h3l-5,8,1-6h-2l2-8.3ZM15.12,7.85h2.88l-2.16,4.54h2.16l-3.6,5.76.72-4.32h-1.44l1.44-5.98Z" style="fill: #605100; fill-rule: evenodd; stroke-width: 0px;"/>
        <path d="M8.42,4h4l-3,6.3h3l-5,8,1-6h-2l2-8.3ZM14.7,6.85h2.88l-2.16,4.54h2.16l-3.6,5.76.72-4.32h-1.44l1.44-5.98Z" style="fill: gold; fill-rule: evenodd; stroke-width: 0px;"/>
      </g>
    </symbol>
    <symbol id="wind" viewBox="0 0 24 24">
      <g>
        <rect width="24" height="24" style="fill: none; stroke-width: 0px;"/>
        <path d="M13.84,14.45s.56-1.01,1.68-.01c.83.74-.26,1.94,1.01,2.74-.65.16-3.02-.11-3.61-1.68-.52-1.38.51-1.13.92-1.05ZM20.11,17.92s-.64.71-1.29-.13c-.48-.63.6-1.44-.21-2.16.53-.06,2.29.35,2.41,1.58.11,1.09-.62.81-.92.71ZM17.16,13.01s-.45-.84.57-1.16c.75-.24,1.15,1.06,2.11.54-.12.52-1.11,2.03-2.31,1.73-1.06-.27-.55-.86-.36-1.11ZM16.67,9.43s.63.96-.77,1.49c-1.04.39-1.59-1.13-2.9-.38.16-.65,1.51-2.62,3.17-2.41,1.46.18.76.98.5,1.3ZM13.64,6.74s-.11,1.54-2.3.81c-1.62-.54-.92-2.57-3.2-2.99.79-.51,4.23-1.28,6.08.42,1.62,1.5.04,1.67-.57,1.76ZM8,9.41s3.89-1.16,4.37,2.51c.36,2.71-5.37,3.45-4.02,6.98-2.05-.66-7.53-4.78-5.26-8.78,2-3.51,4.06-1.47,4.92-.7Z" style="fill: #28a667; fill-rule: evenodd; stroke-width: 0px;"/>
      </g>
    </symbol>
  </defs>
</svg>